<svg width="32" height="32" viewBox="0 0 32 32" fill="none" xmlns="http://www.w3.org/2000/svg">
<path fill-rule="evenodd" clip-rule="evenodd" d="M16 6H28C28.5523 6 29 6.44772 29 7V25C29 25.5523 28.5523 26 28 26H16C15.4477 26 15 25.5523 15 25V19.5C15 19.2238 14.7761 19 14.5 19C14.2239 19 14 19.2238 14 19.5V25C14 26.1046 14.8954 27 16 27H28C29.1046 27 30 26.1046 30 25V7C30 5.89543 29.1046 5 28 5H16C14.8954 5 14 5.89543 14 7V12.5C14 12.7761 14.2239 13 14.5 13C14.7761 13 15 12.7761 15 12.5V7C15 6.44771 15.4477 6 16 6ZM26.5 16.5C26.7761 16.5 27 16.2761 27 16C27 15.7239 26.7761 15.5 26.5 15.5C26.2239 15.5 26 15.7239 26 16C26 16.2761 26.2239 16.5 26.5 16.5ZM26.5 17.5C27.3284 17.5 28 16.8284 28 16C28 15.1716 27.3284 14.5 26.5 14.5C25.6716 14.5 25 15.1716 25 16C25 16.8284 25.6716 17.5 26.5 17.5ZM3 15H18V12.9432L22.2795 16L18 19.0568V17H3V15ZM17 19.0568V18H3C2.44772 18 2 17.5523 2 17V15C2 14.4477 2.44772 14 3 14H17V12.9432C17 12.1298 17.9194 11.6567 18.5812 12.1294L22.8608 15.1862C23.4191 15.5851 23.4191 16.4149 22.8608 16.8137L18.5812 19.8705C17.9194 20.3433 17 19.8702 17 19.0568Z" fill="#F0F0F0"/>
</svg>
