<svg width="36" height="35" viewBox="0 0 36 35" fill="none" xmlns="http://www.w3.org/2000/svg">
<rect x="0.845215" y="6.10352e-05" width="34.4971" height="34.4971" rx="7.53827" fill="#D82D7E" fill-opacity="0.5"/>
<g clip-path="url(#clip0_268_347)">
<path d="M13.2239 26.6844C12.4713 26.676 11.7258 26.538 11.0201 26.2764C10.5048 26.0859 10.0385 25.7826 9.65546 25.3888C9.26055 25.0065 8.95686 24.5401 8.76692 24.0243C8.50554 23.3187 8.36771 22.5732 8.35947 21.8207C8.30168 20.5698 8.29004 20.1946 8.29004 17.0248C8.29004 13.855 8.30282 13.4812 8.3589 12.2292C8.36814 11.477 8.50614 10.732 8.76692 10.0264C8.95778 9.51098 9.26105 9.04455 9.65469 8.66098C10.0373 8.26643 10.5038 7.96302 11.0195 7.77321C11.7252 7.51161 12.4707 7.37359 13.2233 7.36519C14.4747 7.30796 14.8505 7.29633 18.0185 7.29633C21.1866 7.29633 21.5621 7.30911 22.8141 7.36519C23.5664 7.37436 24.3117 7.51236 25.0175 7.77321C25.533 7.96327 25.9994 8.26658 26.3821 8.66079C26.7765 9.04368 27.0799 9.51014 27.2701 10.0258C27.5317 10.7315 27.6698 11.477 27.6783 12.2296C27.7355 13.4815 27.7472 13.8564 27.7472 17.0252C27.7472 20.194 27.7355 20.5688 27.6783 21.8207C27.6692 22.5732 27.5311 23.3185 27.2701 24.0243C27.0726 24.5362 26.7702 25.001 26.3822 25.3888C25.9942 25.7767 25.5293 26.079 25.0175 26.2764C24.3118 26.538 23.5663 26.6761 22.8137 26.6846C21.5629 26.7418 21.1869 26.7534 18.0181 26.7534C14.8493 26.7534 14.4745 26.7424 13.2237 26.6846" fill="url(#paint0_radial_268_347)"/>
<path d="M13.2239 26.6844C12.4713 26.676 11.7258 26.538 11.0201 26.2764C10.5048 26.0859 10.0385 25.7826 9.65546 25.3888C9.26055 25.0065 8.95686 24.5401 8.76692 24.0243C8.50554 23.3187 8.36771 22.5732 8.35947 21.8207C8.30168 20.5698 8.29004 20.1946 8.29004 17.0248C8.29004 13.855 8.30282 13.4812 8.3589 12.2292C8.36814 11.477 8.50614 10.732 8.76692 10.0264C8.95778 9.51098 9.26105 9.04455 9.65469 8.66098C10.0373 8.26643 10.5038 7.96302 11.0195 7.77321C11.7252 7.51161 12.4707 7.37359 13.2233 7.36519C14.4747 7.30796 14.8505 7.29633 18.0185 7.29633C21.1866 7.29633 21.5621 7.30911 22.8141 7.36519C23.5664 7.37436 24.3117 7.51236 25.0175 7.77321C25.533 7.96327 25.9994 8.26658 26.3821 8.66079C26.7765 9.04368 27.0799 9.51014 27.2701 10.0258C27.5317 10.7315 27.6698 11.477 27.6783 12.2296C27.7355 13.4815 27.7472 13.8564 27.7472 17.0252C27.7472 20.194 27.7355 20.5688 27.6783 21.8207C27.6692 22.5732 27.5311 23.3185 27.2701 24.0243C27.0726 24.5362 26.7702 25.001 26.3822 25.3888C25.9942 25.7767 25.5293 26.079 25.0175 26.2764C24.3118 26.538 23.5663 26.6761 22.8137 26.6846C21.5629 26.7418 21.1869 26.7534 18.0181 26.7534C14.8493 26.7534 14.4745 26.7424 13.2237 26.6846" fill="url(#paint1_radial_268_347)"/>
<path d="M15.6298 17.0662C15.6298 16.5896 15.7712 16.1238 16.0359 15.7276C16.3007 15.3314 16.6771 15.0226 17.1174 14.8402C17.5576 14.6579 18.0421 14.6103 18.5095 14.7033C18.9769 14.7963 19.4062 15.0258 19.7431 15.3628C20.08 15.6998 20.3094 16.1292 20.4024 16.5966C20.4953 17.064 20.4475 17.5485 20.2651 17.9887C20.0826 18.4289 19.7737 18.8052 19.3775 19.0699C18.9812 19.3346 18.5153 19.4758 18.0388 19.4758C17.3998 19.4757 16.787 19.2217 16.3353 18.7699C15.8835 18.318 15.6297 17.7051 15.6298 17.0662ZM14.3271 17.0662C14.3271 17.8003 14.5448 18.5179 14.9526 19.1283C15.3605 19.7386 15.9402 20.2144 16.6184 20.4953C17.2966 20.7762 18.0429 20.8498 18.7629 20.7065C19.4829 20.5633 20.1443 20.2098 20.6634 19.6907C21.1825 19.1716 21.536 18.5103 21.6792 17.7903C21.8224 17.0703 21.7489 16.324 21.468 15.6457C21.187 14.9675 20.7113 14.3878 20.1009 13.98C19.4905 13.5721 18.7729 13.3545 18.0388 13.3545C17.5514 13.3544 17.0687 13.4504 16.6184 13.6369C16.168 13.8235 15.7588 14.0969 15.4142 14.4415C15.0695 14.7862 14.7961 15.1954 14.6096 15.6457C14.4231 16.0961 14.3271 16.5787 14.3271 17.0662ZM21.03 13.2074C21.0299 13.3789 21.0807 13.5467 21.176 13.6893C21.2712 13.832 21.4066 13.9432 21.5651 14.009C21.7236 14.0747 21.8979 14.0919 22.0662 14.0585C22.2345 14.0251 22.3891 13.9426 22.5104 13.8214C22.6318 13.7001 22.7144 13.5456 22.748 13.3774C22.7815 13.2091 22.7644 13.0347 22.6989 12.8762C22.6333 12.7177 22.5222 12.5822 22.3796 12.4868C22.237 12.3914 22.0693 12.3405 21.8978 12.3404C21.6678 12.3405 21.4473 12.4319 21.2847 12.5944C21.1221 12.757 21.0306 12.9774 21.0304 13.2074M15.1189 22.95C14.6606 22.9449 14.2065 22.861 13.7766 22.702C13.4648 22.5818 13.1817 22.3977 12.9453 22.1615C12.709 21.9253 12.5248 21.6422 12.4045 21.3305C12.2454 20.9006 12.1615 20.4465 12.1565 19.9881C12.1214 19.2263 12.1145 18.9974 12.1145 17.0671C12.1145 15.1369 12.1222 14.9085 12.1565 14.1459C12.1621 13.6876 12.2459 13.2336 12.4045 12.8036C12.5246 12.4917 12.7088 12.2085 12.9452 11.9721C13.1815 11.7358 13.4647 11.5516 13.7766 11.4315C14.2065 11.2723 14.6606 11.1885 15.1189 11.1835C15.8808 11.1484 16.1097 11.1415 18.0392 11.1415C19.9687 11.1415 20.1977 11.149 20.9604 11.1837C21.4187 11.1892 21.8727 11.2731 22.3027 11.4317C22.6146 11.5518 22.8978 11.736 23.1341 11.9723C23.3705 12.2087 23.5546 12.4919 23.6748 12.8038C23.8339 13.2336 23.9178 13.6877 23.9228 14.1461C23.9579 14.9091 23.9648 15.1369 23.9648 17.0673C23.9648 18.9977 23.9577 19.2259 23.9228 19.9885C23.9175 20.4468 23.8336 20.9009 23.6748 21.3308C23.5545 21.6426 23.3703 21.9257 23.134 22.1619C22.8977 22.3981 22.6145 22.5822 22.3027 22.7024C21.8728 22.8615 21.4188 22.9454 20.9604 22.9504C20.1985 22.9855 19.9696 22.9923 18.0392 22.9923C16.1087 22.9923 15.8806 22.9853 15.1189 22.9504M15.059 9.88197C14.4593 9.89376 13.8659 10.0073 13.3041 10.2177C12.8239 10.4034 12.3877 10.6873 12.0237 11.0514C11.6596 11.4155 11.3756 11.8516 11.19 12.3318C10.9796 12.8936 10.8661 13.487 10.8542 14.0868C10.8186 14.8574 10.8105 15.1039 10.8105 17.0669C10.8105 19.03 10.8188 19.2762 10.8542 20.0471C10.866 20.6468 10.9796 21.2402 11.19 21.802C11.3756 22.2822 11.6596 22.7183 12.0237 23.0824C12.3877 23.4465 12.8239 23.7305 13.3041 23.9161C13.8659 24.1265 14.4593 24.24 15.059 24.2519C15.8301 24.287 16.0761 24.2956 18.0392 24.2956C20.0022 24.2956 20.2485 24.2873 21.0193 24.2519C21.6191 24.24 22.2125 24.1265 22.7743 23.9161C23.2545 23.7305 23.6906 23.4465 24.0547 23.0824C24.4187 22.7183 24.7027 22.2822 24.8884 21.802C25.0991 21.2403 25.2126 20.6469 25.2241 20.0471C25.2592 19.2759 25.2672 19.03 25.2672 17.0669C25.2672 15.1039 25.259 14.8576 25.2241 14.0868C25.2123 13.487 25.0988 12.8936 24.8884 12.3318C24.7027 11.8517 24.4188 11.4156 24.0549 11.0516C23.6909 10.6875 23.2549 10.4035 22.7748 10.2177C22.2131 10.0071 21.6197 9.89362 21.0199 9.88197C20.2491 9.84668 20.0028 9.83829 18.0401 9.83829C16.0775 9.83829 15.8306 9.84649 15.0594 9.88197" fill="white"/>
</g>
<defs>
<radialGradient id="paint0_radial_268_347" cx="0" cy="0" r="1" gradientUnits="userSpaceOnUse" gradientTransform="translate(9.54921 26.3271) scale(24.7031)">
<stop offset="0.09" stop-color="#FA8F21"/>
<stop offset="0.78" stop-color="#D82D7E"/>
</radialGradient>
<radialGradient id="paint1_radial_268_347" cx="0" cy="0" r="1" gradientUnits="userSpaceOnUse" gradientTransform="translate(21.7672 25.7022) scale(21.7389)">
<stop offset="0.64" stop-color="#8C3AAA" stop-opacity="0"/>
<stop offset="1" stop-color="#8C3AAA"/>
</radialGradient>
<clipPath id="clip0_268_347">
<rect width="19.4569" height="19.4569" fill="white" transform="translate(8.29053 7.29636)"/>
</clipPath>
</defs>
</svg>
