<svg width="36" height="35" viewBox="0 0 36 35" fill="none" xmlns="http://www.w3.org/2000/svg">
<rect x="0.537109" y="0.000427246" width="34.4963" height="34.4963" rx="8.78682" fill="#67C15E" fill-opacity="0.5"/>
<g clip-path="url(#clip0_268_361)">
<path fill-rule="evenodd" clip-rule="evenodd" d="M16.7891 7.29645C11.4263 7.29645 7.06349 11.6601 7.06349 17.0249C7.06039 19.074 7.70915 21.071 8.91595 22.727L7.70394 26.3415L11.4429 25.1466C13.0294 26.1982 14.8914 26.7572 16.7948 26.7534C22.1576 26.7534 26.5204 22.3893 26.5204 17.0249C26.5204 11.6605 22.158 7.29645 16.7948 7.29645H16.7891ZM14.0733 12.2377C13.8844 11.7861 13.7417 11.7691 13.4559 11.7574C13.3474 11.7505 13.2387 11.7468 13.13 11.7464C12.7579 11.7464 12.3691 11.855 12.1349 12.095C11.8491 12.3869 11.1401 13.067 11.1401 14.4627C11.1401 15.8583 12.1576 17.2081 12.295 17.397C12.4381 17.5855 14.2792 20.4907 17.1377 21.6747C19.3732 22.6013 20.0368 22.5154 20.5455 22.4068C21.2889 22.2467 22.2208 21.6974 22.4551 21.0343C22.6898 20.3707 22.6898 19.8044 22.6213 19.6844C22.5524 19.5644 22.3635 19.4959 22.0782 19.3529C21.792 19.2098 20.4024 18.5235 20.1394 18.4319C19.8824 18.3346 19.6367 18.3691 19.4421 18.6435C19.1677 19.0269 18.899 19.4157 18.6817 19.65C18.5102 19.8332 18.2297 19.8563 17.9954 19.7586C17.6809 19.6273 16.8005 19.3184 15.7141 18.352C14.8734 17.6025 14.3019 16.6706 14.1361 16.3901C13.9699 16.1044 14.1191 15.9386 14.2504 15.7841C14.3935 15.6066 14.5305 15.4809 14.6736 15.3151C14.8163 15.1489 14.8965 15.0634 14.9881 14.8692C15.0854 14.6804 15.0165 14.4858 14.9476 14.3423C14.8795 14.1996 14.3075 12.804 14.0733 12.2381V12.2377Z" fill="#67C15E"/>
</g>
<defs>
<clipPath id="clip0_268_361">
<rect width="19.4569" height="19.4569" fill="white" transform="translate(7.0625 7.29636)"/>
</clipPath>
</defs>
</svg>
