<svg width="35" height="35" viewBox="0 0 35 35" fill="none" xmlns="http://www.w3.org/2000/svg">
<rect x="0.382324" y="0.000427246" width="34.4963" height="34.4963" rx="8.04914" fill="#CD201F" fill-opacity="0.5"/>
<g clip-path="url(#clip0_268_364)">
<path d="M20.0729 17.2686C18.2812 16.3598 16.5656 15.5243 14.812 14.652V19.8704C16.6574 18.9182 18.6024 18.0463 20.0805 17.2686H20.0729Z" fill="white"/>
<path d="M20.0729 17.2686C18.2812 16.3598 14.812 14.652 14.812 14.652L19.4374 17.6027C19.4374 17.6027 18.5948 18.0463 20.0729 17.2686Z" fill="#E8E0E0"/>
<path d="M15.1502 23.955C11.4287 23.89 10.1576 23.8315 9.3763 23.6787C8.84771 23.5772 8.38836 23.3518 8.05155 23.0249C7.79125 22.7775 7.58423 22.4001 7.42362 21.8763C7.28586 21.44 7.2322 21.077 7.1557 20.1902C7.0386 18.1889 7.01068 16.5527 7.1557 14.7245C7.27534 13.7149 7.33335 12.5164 8.12805 11.8172C8.50329 11.4899 8.93979 11.2793 9.42996 11.1923C10.1957 11.0543 13.4578 10.9452 16.835 10.9452C20.2045 10.9452 23.4739 11.0543 24.2403 11.1923C24.8527 11.3014 25.427 11.6283 25.7641 12.0498C26.4892 13.1323 26.5019 14.4785 26.5755 15.5314C26.606 16.0331 26.606 18.8819 26.5755 19.3836C26.4609 21.0477 26.3689 21.6365 26.1085 22.2469C25.9476 22.6323 25.8102 22.8357 25.5723 23.0611C25.1993 23.4079 24.7238 23.6386 24.2092 23.7224C20.9887 23.9523 18.254 24.0022 15.1502 23.955ZM20.0819 17.2684C18.2902 16.3597 16.5747 15.517 14.821 14.6447V19.8633C16.6664 18.9112 18.6118 18.0389 20.0895 17.2612L20.0819 17.2684Z" fill="#CD201F"/>
</g>
<defs>
<clipPath id="clip0_268_364">
<rect width="19.0442" height="13.3766" fill="white" transform="translate(7.05713 10.9445)"/>
</clipPath>
</defs>
</svg>
