<svg xmlns="http://www.w3.org/2000/svg" enable-background="new 0 0 500 500" viewBox="0 0 500 500" id="Backlink">
  <g id="obj" fill="#000000" class="color000000 svgShape">
    <rect width="253.97" height="249.67" x="38.38" y="173.96" fill="#e3f5ff" class="colore4e3ff svgShape"></rect>
    <rect width="127.15" height="99.71" x="343.09" y="294.39" fill="#e3f5ff" class="colore4e3ff svgShape"></rect>
    <rect width="99.71" height="19.88" x="104.61" y="110.08" fill="#e3f5ff" class="colore4e3ff svgShape"></rect>
    <path fill="#e3f5ff" d="M457.61,184.21l-6.41-0.02c-1.12-5-3.03-9.71-5.57-14l0,0l4.74-4.71c1.67-1.66,1.68-4.37,0.02-6.05
			l-10.31-10.38c-1.66-1.67-4.37-1.68-6.05-0.02l-4.55,4.52c-4.21-2.66-8.88-4.7-13.83-5.98l0.02-6.67c0.01-2.36-1.9-4.28-4.26-4.29
			l-14.63-0.05c-2.36-0.01-4.28,1.9-4.29,4.26l-0.02,6.42c-5,1.12-9.71,3.03-14.01,5.55l0,0l-4.7-4.73
			c-1.66-1.67-4.37-1.68-6.05-0.02l-10.38,10.31c-1.67,1.66-1.68,4.37-0.02,6.05l4.53,4.56c-2.68,4.21-4.7,8.86-5.98,13.82
			l-6.68-0.02c-2.36-0.01-4.28,1.9-4.29,4.26l-0.05,14.63c-0.01,2.36,1.9,4.28,4.26,4.29l6.44,0.02c1.1,5,3.01,9.71,5.55,14
			l-4.74,4.71c-1.67,1.66-1.68,4.37-0.02,6.05l10.31,10.38c1.66,1.67,4.37,1.68,6.05,0.02l4.55-4.53c0,0,0,0,0,0
			c4.21,2.67,8.86,4.7,13.82,5.98c0,0,0,0,0.01,0l-0.02,6.67c-0.01,2.36,1.9,4.28,4.26,4.29l14.63,0.05
			c2.36,0.01,4.28-1.9,4.29-4.26l0.02-6.42c0,0,0,0,0.01,0c5-1.12,9.71-3.01,13.99-5.55c0,0,0,0,0.01,0l4.71,4.74
			c1.66,1.67,4.37,1.68,6.05,0.02l10.38-10.31c1.67-1.66,1.68-4.37,0.02-6.05l-4.53-4.56c0,0,0,0,0,0
			c2.68-4.21,4.72-8.86,5.99-13.82l6.66,0.02c2.36,0.01,4.28-1.9,4.29-4.26l0.05-14.63C461.88,186.14,459.97,184.22,457.61,184.21z
			 M406.91,222.08c-17.83,2.25-32.83-12.77-30.53-30.6c1.56-12.13,11.38-21.9,23.52-23.39c17.8-2.19,32.72,12.78,30.47,30.56
			C428.83,210.77,419.03,220.55,406.91,222.08z" class="colore4e3ff svgShape"></path>
    <path fill="#21a5f0" d="M407.97,194.06v184.02c0,4.22-3.42,7.64-7.64,7.64H100.77c-4.22,0-7.64-3.42-7.64-7.64V194.06
				c0-4.22,3.42-7.64,7.64-7.64h299.56C404.55,186.42,407.97,189.84,407.97,194.06z" class="color7563fb svgShape"></path>
    <path fill="#1d6893" d="M93.45,216.69h314.86v-23.64c0-4.22-3.42-7.65-7.65-7.65H101.1c-4.22,0-7.65,3.42-7.65,7.65V216.69z" class="color461d93 svgShape"></path>
    <circle cx="160.62" cy="201.05" r="4.52" fill="#ffffff" class="colorffffff svgShape"></circle>
    <circle cx="138.99" cy="201.05" r="4.52" fill="#ffffff" class="colorffffff svgShape"></circle>
    <circle cx="117.36" cy="201.05" r="4.52" fill="#ffffff" class="colorffffff svgShape"></circle>
    <g fill="#000000" class="color000000 svgShape">
      <path fill="none" stroke="#ffffff" stroke-linecap="round" stroke-miterlimit="10" stroke-width="7.279" d="M238.26,306.24v-13.28v-15.84c0-5.55,4.5-10.05,10.05-10.05h86.44c5.55,0,10.05,4.5,10.05,10.05v41
				c0,5.55-4.5,10.05-10.05,10.05h-57.68" class="colorStrokeffffff svgStroke"></path>
      <path fill="none" stroke="#ffffff" stroke-linecap="round" stroke-miterlimit="10" stroke-width="7.279" d="M261.29,288.99v29.12c0,5.55-4.5,10.05-10.05,10.05H164.8c-5.55,0-10.05-4.5-10.05-10.05v-5.79v-19.37
				v-15.84c0-5.55,4.5-10.05,10.05-10.05h55.11" class="colorStrokeffffff svgStroke"></path>
    </g>
    <g fill="#000000" class="color000000 svgShape">
      <path fill="#1d6893" d="M445.27,408.79l-110.19-0.35c-1.36,0-2.46-1.11-2.46-2.47l0.17-54.59c0-1.36,1.11-2.46,2.47-2.46
				l110.19,0.35c1.36,0,2.46,1.11,2.46,2.47l-0.17,54.59C447.74,407.69,446.63,408.79,445.27,408.79z" class="color461d93 svgShape"></path>
      <rect width="6.94" height="18.44" x="345.57" y="381.36" fill="#4cabe1" transform="rotate(.18 349.027 390.593)" class="colore14c72 svgShape"></rect>
      <rect width="6.94" height="25.27" x="359.63" y="374.58" fill="#ffffff" transform="rotate(.18 363.106 387.2)" class="colorffffff svgShape"></rect>
      <rect width="6.94" height="35.32" x="373.69" y="364.57" fill="#4cabe1" transform="rotate(.18 377.182 382.219)" class="colore14c72 svgShape"></rect>
      <rect width="6.94" height="24.79" x="387.73" y="375.15" fill="#ffffff" transform="rotate(.18 391.21 387.538)" class="colorffffff svgShape"></rect>
      <rect width="6.94" height="12.21" x="401.76" y="387.77" fill="#4cabe1" transform="rotate(.18 405.241 393.874)" class="colore14c72 svgShape"></rect>
      <rect width="6.94" height="42.63" x="429.9" y="357.44" fill="#4cabe1" transform="rotate(.18 433.385 378.76)" class="colore14c72 svgShape"></rect>
      <rect width="6.94" height="33.05" x="415.84" y="366.98" fill="#ffffff" transform="rotate(.18 419.309 383.488)" class="colorffffff svgShape"></rect>
    </g>
    <g fill="#000000" class="color000000 svgShape">
      <path fill="#ffffff" d="M211.65,153.43v92.21c0,2.12-1.71,3.83-3.83,3.83H57.72c-2.12,0-3.83-1.71-3.83-3.83v-92.21
					c0-2.12,1.71-3.83,3.83-3.83h150.1C209.94,149.6,211.65,151.31,211.65,153.43z" class="colorffffff svgShape"></path>
      <path fill="#1d6893" d="M54.05,164.77h157.77v-11.84c0-2.12-1.72-3.83-3.83-3.83H57.88c-2.12,0-3.83,1.72-3.83,3.83V164.77z" class="color461d93 svgShape"></path>
      <circle cx="87.71" cy="156.93" r="2.26" fill="#ffffff" class="colorffffff svgShape"></circle>
      <circle cx="76.87" cy="156.93" r="2.26" fill="#ffffff" class="colorffffff svgShape"></circle>
      <circle cx="66.03" cy="156.93" r="2.26" fill="#ffffff" class="colorffffff svgShape"></circle>
      <g fill="#000000" class="color000000 svgShape">
        <rect width="25.12" height="25.12" x="65.68" y="175.93" fill="#e3f5ff" class="colore4e3ff svgShape"></rect>
        <rect width="25.12" height="25.12" x="101.76" y="175.93" fill="#e3f5ff" class="colore4e3ff svgShape"></rect>
        <rect width="25.12" height="25.12" x="137.84" y="175.93" fill="#e3f5ff" class="colore4e3ff svgShape"></rect>
        <rect width="25.12" height="25.12" x="173.91" y="175.93" fill="#e3f5ff" class="colore4e3ff svgShape"></rect>
        <g fill="#000000" class="color000000 svgShape">
          <rect width="25.12" height="25.12" x="65.68" y="211.1" fill="#e3f5ff" class="colore4e3ff svgShape"></rect>
          <rect width="25.12" height="25.12" x="101.76" y="211.1" fill="#e3f5ff" class="colore4e3ff svgShape"></rect>
          <rect width="25.12" height="25.12" x="137.84" y="211.1" fill="#e3f5ff" class="colore4e3ff svgShape"></rect>
          <rect width="25.12" height="25.12" x="173.91" y="211.1" fill="#e3f5ff" class="colore4e3ff svgShape"></rect>
        </g>
      </g>
    </g>
    <path fill="#e3f5ff" d="M259.23,91.61c-16.65-0.05-30.24,13.45-30.29,30.1c-0.05,16.65,13.45,30.24,30.1,30.29
			c16.65,0.05,30.24-13.45,30.29-30.1C289.38,105.25,275.88,91.67,259.23,91.61z M259.22,95.05c2.1,2.19,7.02,7.93,9.6,16.04
			c-6.43,1.85-12.9,1.8-19.28-0.15C252.19,102.89,257.11,97.22,259.22,95.05z M269.39,129.81c-6.84-1.98-13.74-1.97-20.54,0.02
			c-1.5-5.95-1.24-11.4-0.08-16.16c3.49,1.06,7.01,1.63,10.54,1.64c3.42,0.01,6.85-0.5,10.26-1.48
			C270.67,118.56,270.89,123.95,269.39,129.81z M268.57,132.55c-1.71,5.01-4.73,10.33-9.52,15.84c-4.73-5.51-7.71-10.82-9.39-15.81
			C255.92,130.74,262.27,130.73,268.57,132.55z M272.15,113c3.57-1.28,7.03-3.07,10.33-5.35c2.53,4.16,4.01,9.03,4,14.24
			c-0.02,5.22-1.53,10.08-4.09,14.22c-3.29-2.3-6.75-4.12-10.32-5.42C273.72,124.21,273.42,118.22,272.15,113z M280.87,105.29
			c-3.04,2.1-6.23,3.76-9.5,4.95c-2.27-7.06-6.12-12.48-8.66-15.52C270.1,95.7,276.56,99.63,280.87,105.29z M255.73,94.71
			c-2.55,3.01-6.41,8.36-8.72,15.35c-3.16-1.21-6.3-2.9-9.39-5.05C241.97,99.45,248.4,95.62,255.73,94.71z M235.98,107.34
			c3.35,2.34,6.78,4.17,10.22,5.46c-1.34,5.27-1.69,11.34-0.03,17.93c-3.45,1.28-6.9,3.09-10.28,5.41c-2.6-4.2-4.12-9.13-4.1-14.42
			C231.81,116.44,233.36,111.52,235.98,107.34z M237.52,138.49c3.12-2.14,6.29-3.82,9.46-5.01c1.63,4.92,4.42,10.1,8.77,15.44
			C248.34,148,241.87,144.11,237.52,138.49z M262.35,148.94c4.42-5.36,7.25-10.56,8.91-15.5c3.26,1.21,6.49,2.92,9.51,5.02
			C276.38,144.15,269.83,148.06,262.35,148.94z" class="colore4e3ff svgShape"></path>
  </g>
</svg>
