<svg width="22" height="21" viewBox="0 0 22 21" fill="none" xmlns="http://www.w3.org/2000/svg">
<path d="M21.4503 15.85C21.2056 15.5894 20.3417 14.8188 18.7536 13.7992C17.1537 12.7708 15.9739 12.1295 15.6354 11.98C15.6056 11.9668 15.5727 11.9619 15.5404 11.966C15.508 11.97 15.4773 11.9828 15.4517 12.003C14.9065 12.4281 13.9887 13.2091 13.9395 13.2513C13.6217 13.5236 13.6217 13.5236 13.3615 13.4388C12.904 13.2888 11.4828 12.5341 10.2443 11.2928C9.0059 10.0516 8.21231 8.59517 8.06231 8.13813C7.97653 7.87751 7.97653 7.87751 8.24981 7.5597C8.292 7.51048 9.0734 6.59267 9.49856 6.04798C9.51872 6.02233 9.53152 5.99167 9.53556 5.95929C9.53961 5.92692 9.53476 5.89405 9.52153 5.86423C9.372 5.52532 8.73075 4.34595 7.70231 2.7461C6.68137 1.15845 5.91168 0.294541 5.65106 0.0498537C5.62714 0.0272848 5.59758 0.0115846 5.56549 0.0044074C5.5334 -0.00276975 5.49997 -0.00115806 5.46871 0.00907248C4.55769 0.322157 3.67869 0.721631 2.84371 1.20204C2.03766 1.67062 1.27455 2.20943 0.563246 2.8122C0.538416 2.83331 0.519801 2.86078 0.509396 2.89166C0.498991 2.92254 0.497189 2.95568 0.504184 2.98751C0.602152 3.44407 1.07043 5.35001 2.52356 7.99001C4.00621 10.6844 5.03371 12.0649 7.21106 14.2347C9.3884 16.4045 10.8125 17.4939 13.5097 18.9766C16.1497 20.4297 18.0565 20.8984 18.5122 20.9955C18.5441 21.0024 18.5772 21.0006 18.6082 20.9902C18.6391 20.9798 18.6667 20.9612 18.6879 20.9364C19.2906 20.2251 19.8293 19.462 20.2976 18.6559C20.778 17.8209 21.1774 16.9419 21.4906 16.0309C21.5006 15.9999 21.5022 15.9668 21.4951 15.935C21.488 15.9032 21.4725 15.8738 21.4503 15.85Z" fill="#21A5F0"/>
</svg>
