<svg width="14" height="14" viewBox="0 0 14 14" fill="none" xmlns="http://www.w3.org/2000/svg">
<path d="M11.3225 7.58317C11.1941 7.58317 11.06 7.54234 10.9316 7.51317C10.672 7.4551 10.4166 7.37909 10.1675 7.28567C9.89686 7.18722 9.5994 7.19233 9.33233 7.30002C9.06525 7.40771 8.84744 7.61037 8.72081 7.869L8.59248 8.13734C8.02596 7.81604 7.50259 7.42401 7.03498 6.97067C6.58164 6.50306 6.18961 5.97969 5.86831 5.41317L6.13665 5.29067C6.39528 5.16404 6.59793 4.94623 6.70562 4.67916C6.81332 4.41208 6.81843 4.11462 6.71998 3.844C6.62734 3.59261 6.55134 3.33538 6.49248 3.074C6.46331 2.94567 6.43998 2.8115 6.42248 2.68317C6.35164 2.27228 6.13643 1.90019 5.81559 1.63389C5.49476 1.3676 5.08938 1.22461 4.67248 1.23067H2.91664C2.67004 1.23035 2.42615 1.28215 2.20096 1.38268C1.97578 1.48321 1.77438 1.63019 1.60998 1.814C1.44216 2.0028 1.31721 2.22569 1.24371 2.46736C1.1702 2.70902 1.14988 2.96374 1.18414 3.214C1.50124 5.64192 2.61052 7.89739 4.33998 9.63067C6.07326 11.3601 8.32873 12.4694 10.7566 12.7865C10.8324 12.7923 10.9084 12.7923 10.9841 12.7865C11.4143 12.7871 11.8296 12.6293 12.1508 12.3432C12.3346 12.1788 12.4816 11.9774 12.5821 11.7522C12.6827 11.527 12.7345 11.2831 12.7341 11.0365V9.2865C12.731 8.88344 12.5888 8.49382 12.3316 8.18348C12.0744 7.87313 11.718 7.66109 11.3225 7.58317ZM11.6083 11.0832C11.6081 11.1646 11.5909 11.245 11.5577 11.3194C11.5246 11.3937 11.4762 11.4603 11.4158 11.5148C11.3519 11.5731 11.2758 11.6164 11.1931 11.6416C11.1103 11.6668 11.023 11.6733 10.9375 11.6607C8.76064 11.3764 6.73762 10.3843 5.17998 8.83734C3.621 7.27836 2.62033 5.2483 2.33331 3.06234C2.32064 2.97678 2.32715 2.88948 2.35237 2.80675C2.37759 2.72402 2.4209 2.64794 2.47914 2.584C2.53434 2.52284 2.60187 2.47407 2.67727 2.44089C2.75268 2.40771 2.83426 2.39088 2.91664 2.3915H4.66665C4.80149 2.38821 4.93331 2.43174 5.03967 2.5147C5.14602 2.59766 5.22034 2.71491 5.24998 2.8465C5.24998 3.004 5.30248 3.16734 5.33748 3.32484C5.4049 3.63042 5.49458 3.93067 5.60581 4.22317L4.78915 4.60817C4.64877 4.67261 4.53969 4.79008 4.48581 4.93484C4.42747 5.07686 4.42747 5.23615 4.48581 5.37817C5.32535 7.17644 6.77087 8.62197 8.56915 9.4615C8.71116 9.51985 8.87046 9.51985 9.01248 9.4615C9.15723 9.40763 9.27471 9.29854 9.33915 9.15817L9.70665 8.3415C10.0076 8.45124 10.3155 8.54088 10.6283 8.60984C10.78 8.64484 10.9433 8.674 11.1008 8.69734C11.2324 8.72697 11.3497 8.80129 11.4326 8.90765C11.5156 9.01401 11.5591 9.14583 11.5558 9.28067L11.6083 11.0832ZM8.16665 1.1665C8.03248 1.1665 7.89248 1.1665 7.75831 1.1665C7.6036 1.17965 7.46045 1.25372 7.36036 1.37242C7.26026 1.49111 7.21141 1.64471 7.22456 1.79942C7.23771 1.95413 7.31178 2.09728 7.43048 2.19738C7.54917 2.29747 7.70277 2.34632 7.85748 2.33317H8.16665C9.0949 2.33317 9.98514 2.70192 10.6415 3.3583C11.2979 4.01467 11.6666 4.90491 11.6666 5.83317C11.6666 5.93817 11.6666 6.03734 11.6666 6.14234C11.6537 6.29623 11.7023 6.44896 11.8018 6.56706C11.9013 6.68516 12.0436 6.75898 12.1975 6.77234H12.2441C12.3902 6.77293 12.5311 6.71873 12.6391 6.62044C12.7471 6.52216 12.8143 6.38694 12.8275 6.2415C12.8275 6.10734 12.8275 5.96734 12.8275 5.83317C12.8275 4.5965 12.3366 3.4104 11.4627 2.5354C10.5888 1.6604 9.40331 1.16805 8.16665 1.1665ZM9.33331 5.83317C9.33331 5.98788 9.39477 6.13625 9.50417 6.24565C9.61356 6.35505 9.76194 6.4165 9.91665 6.4165C10.0714 6.4165 10.2197 6.35505 10.3291 6.24565C10.4385 6.13625 10.5 5.98788 10.5 5.83317C10.5 5.21433 10.2541 4.62084 9.81656 4.18325C9.37898 3.74567 8.78548 3.49984 8.16665 3.49984C8.01194 3.49984 7.86356 3.5613 7.75417 3.67069C7.64477 3.78009 7.58331 3.92846 7.58331 4.08317C7.58331 4.23788 7.64477 4.38625 7.75417 4.49565C7.86356 4.60505 8.01194 4.6665 8.16665 4.6665C8.47606 4.6665 8.77281 4.78942 8.9916 5.00821C9.2104 5.22701 9.33331 5.52375 9.33331 5.83317Z" fill="white"/>
</svg>
