<?xml version="1.0" encoding="UTF-8"?>
<svg id="Layer_2" data-name="Layer 2" xmlns="http://www.w3.org/2000/svg" xmlns:xlink="http://www.w3.org/1999/xlink" viewBox="0 0 511.23 124.67">
  <defs>
    <style>
      .cls-1 {
        fill: url(#linear-gradient);
      }

      .cls-2 {
        fill: #00338c;
      }

      .cls-3 {
        fill: #fff;
      }
    </style>
    <linearGradient id="linear-gradient" x1="0" y1="67.69" x2="110.11" y2="67.69" gradientUnits="userSpaceOnUse">
      <stop offset="0" stop-color="#00fbff"/>
      <stop offset="1" stop-color="#2fb7e6"/>
    </linearGradient>
  </defs>
  <g id="Layer_1-2" data-name="Layer 1">
    <g>
      <g>
        <path class="cls-1" d="M79.01,87.19l13.83,29.66c-1.24.68-2.51,1.34-3.82,1.94-1.31.62-2.63,1.17-3.95,1.68l-13.81-29.61-19.68-42.2L.83,72.33c-.5-3.02-.78-6.04-.83-9.07L103.7,14.9c2.28,1.98,4.43,4.14,6.41,6.47l-50.76,23.67,19.66,42.15Z"/>
        <path class="cls-2" d="M63.06,93.52l-15.61-33.48-36.66,17.09c-1.27-1.57-3.48-2.16-5.4-1.26-1.2.56-2.04,1.58-2.4,2.76-.32,1.03-.27,2.17.22,3.21,1.05,2.25,3.72,3.23,5.98,2.18.13-.06.26-.13.38-.2,1.66-.98,2.48-2.91,2.12-4.75l34.72-16.18,14.51,31.13,13.74,29.46c.71-.13,1.43-.29,2.16-.46l-13.76-29.5ZM8.28,82.09c-.27.13-.55.19-.83.21-.94.07-1.88-.44-2.31-1.36-.1-.2-.15-.4-.18-.62-.17-1.01.35-2.06,1.33-2.51,1.17-.55,2.58-.04,3.13,1.14.56,1.18.04,2.59-1.14,3.14Z"/>
        <path class="cls-2" d="M93.86,8.86c-1.05-2.25-3.73-3.22-5.99-2.17-1.91.89-2.89,2.96-2.49,4.95L9.28,47.12c-1.27-1.58-3.48-2.16-5.4-1.27-2.25,1.05-3.22,3.73-2.17,5.99,1.05,2.25,3.73,3.22,5.98,2.17,1.91-.89,2.9-2.96,2.5-4.95L86.28,13.57c1.27,1.58,3.48,2.16,5.4,1.27,2.24-1.05,3.22-3.73,2.17-5.99ZM6.77,52.06c-1.17.55-2.58.04-3.13-1.14-.56-1.18-.04-2.59,1.14-3.14,1.17-.55,2.58-.04,3.14,1.14.55,1.17.04,2.58-1.15,3.13ZM90.78,12.9c-1.18.55-2.59.04-3.14-1.15-.55-1.17-.04-2.58,1.14-3.13,1.18-.55,2.59-.04,3.14,1.14.55,1.18.04,2.59-1.14,3.14Z"/>
        <path class="cls-2" d="M74.33,2.6c-1.05-2.25-3.72-3.23-5.98-2.18-1.91.89-2.9,2.97-2.5,4.96L17.02,28.14c-1.27-1.57-3.48-2.16-5.4-1.26-2.25,1.05-3.22,3.73-2.17,5.98,1.05,2.25,3.73,3.22,5.98,2.17,1.91-.89,2.9-2.96,2.5-4.95L66.76,7.32c1.27,1.57,3.48,2.16,5.4,1.26,2.25-1.05,3.22-3.73,2.17-5.98ZM14.52,33.1c-1.17.55-2.58.04-3.13-1.15-.55-1.17-.04-2.58,1.14-3.13,1.18-.56,2.59-.04,3.14,1.14.55,1.18.04,2.59-1.15,3.14ZM71.25,6.64c-1.17.55-2.58.04-3.14-1.14-.55-1.18-.04-2.59,1.15-3.14,1.17-.55,2.58-.04,3.14,1.15.55,1.17.03,2.58-1.15,3.13Z"/>
        <path class="cls-2" d="M48.61,95.48l-7.9-16.94-22.31,10.4-1.78.83c-1.27-1.58-3.48-2.16-5.4-1.27-2.24,1.05-3.22,3.73-2.17,5.99,1.05,2.25,3.73,3.22,5.99,2.17,1.91-.89,2.89-2.96,2.49-4.95l3.44-1.61,18.71-8.72,6.57,14.1,13.58,29.11c.8.05,1.59.07,2.4.07l-13.61-29.18ZM14.12,94.72c-1.17.55-2.58.04-3.13-1.14-.55-1.18-.04-2.59,1.14-3.14,1.18-.55,2.59-.04,3.14,1.15.55,1.17.04,2.58-1.15,3.13Z"/>
        <path class="cls-2" d="M115.85,29.33c-.6-1.29-1.74-2.16-3.02-2.48-.96-.23-1.99-.15-2.95.3-1.91.89-2.9,2.96-2.5,4.96l-36.64,17.08,15.54,33.33,13.83,29.66c.59-.44,1.17-.89,1.73-1.36l-13.82-29.64-14.43-30.96,34.7-16.18c1.04,1.29,2.7,1.91,4.33,1.61.37-.06.72-.17,1.07-.34,2.25-1.05,3.22-3.73,2.17-5.98ZM112.78,33.35h0c-1.18.56-2.59.05-3.14-1.13-.55-1.18-.04-2.59,1.15-3.14.69-.33,1.47-.28,2.11.07.43.23.8.6,1.02,1.08.55,1.17.04,2.57-1.13,3.12Z"/>
        <path class="cls-2" d="M121.78,41.92c-1.05-2.25-3.73-3.22-5.99-2.17-1.91.89-2.89,2.96-2.5,4.95l-2.44,1.14-21.61,10.08,7.76,16.63,13.75,29.49c.51-.62,1.01-1.23,1.49-1.88l-13.73-29.44-6.42-13.77,18.01-8.4,4.1-1.91c1.27,1.57,3.49,2.16,5.4,1.26,2.25-1.05,3.23-3.72,2.18-5.98ZM118.69,45.96c-1.17.55-2.58.03-3.13-1.15-.55-1.17-.04-2.58,1.14-3.14,1.18-.55,2.59-.03,3.14,1.15.55,1.17.04,2.58-1.15,3.14Z"/>
        <path class="cls-2" d="M124.6,55.97c-1.05-2.25-3.73-3.23-5.99-2.18-1.91.89-2.89,2.97-2.5,4.96l-8.38,3.91,11.81,25.31c.39-.87.78-1.75,1.13-2.65l-10.08-21.62,6.44-3c1.27,1.57,3.49,2.16,5.4,1.26,2.25-1.05,3.22-3.73,2.18-5.98ZM121.51,60c-1.17.55-2.58.04-3.13-1.14-.55-1.18-.04-2.59,1.14-3.14,1.18-.55,2.59-.04,3.14,1.15.55,1.17.04,2.58-1.15,3.13Z"/>
        <path class="cls-2" d="M33.98,97.04l-8.38,3.91c-1.27-1.57-3.48-2.16-5.4-1.26-2.25,1.05-3.22,3.73-2.17,5.98,1.05,2.25,3.73,3.22,5.98,2.17,1.91-.89,2.9-2.96,2.5-4.95l6.44-3,10.08,21.63c.91.31,1.84.58,2.76.84l-11.81-25.32ZM23.09,105.9c-1.17.55-2.58.04-3.13-1.15-.55-1.17-.04-2.58,1.14-3.13,1.18-.56,2.59-.04,3.14,1.14.55,1.17.04,2.59-1.15,3.14Z"/>
      </g>
      <g>
        <path class="cls-2" d="M154.33,39.41c0-6.16,1.71-10.95,5.14-14.38s8.21-5.15,14.33-5.15,11.11,1.69,14.51,5.05c3.4,3.37,5.09,8.09,5.09,14.16,0,4.41-.74,8.02-2.23,10.84s-3.63,5.02-6.43,6.59c-2.8,1.57-6.3,2.35-10.48,2.35s-7.77-.68-10.56-2.03c-2.79-1.35-5.05-3.5-6.78-6.43-1.73-2.93-2.6-6.6-2.6-11.01ZM165.98,39.46c0,3.81.71,6.54,2.12,8.21,1.41,1.66,3.34,2.5,5.77,2.5s4.44-.81,5.81-2.44c1.37-1.63,2.06-4.55,2.06-8.77,0-3.55-.72-6.14-2.15-7.78-1.43-1.64-3.37-2.46-5.83-2.46s-4.24.83-5.66,2.5c-1.42,1.66-2.14,4.42-2.14,8.26Z"/>
        <path class="cls-2" d="M205.61,20.53h15.33l5.91,22.95,5.87-22.95h15.32v37.71h-9.54v-28.76l-7.35,28.76h-8.64l-7.34-28.76v28.76h-9.54V20.53Z"/>
        <path class="cls-2" d="M261.6,20.53h10.88l14.2,20.86v-20.86h10.98v37.71h-10.98l-14.12-20.71v20.71h-10.96V20.53Z"/>
        <path class="cls-2" d="M311.93,20.53h11.68v37.71h-11.68V20.53Z"/>
        <path class="cls-2" d="M335.38,20.53h35.42v9.31h-11.88v28.4h-11.65v-28.4h-11.88v-9.31Z"/>
        <path class="cls-2" d="M382.11,20.53h31.23v8.05h-19.55v5.99h18.14v7.69h-18.14v7.43h20.12v8.54h-31.79V20.53Z"/>
        <path class="cls-2" d="M451.35,42.81l10.21,3.09c-.69,2.86-1.77,5.26-3.24,7.18-1.48,1.92-3.31,3.37-5.49,4.35s-4.97,1.47-8.35,1.47c-4.1,0-7.45-.6-10.05-1.79s-4.84-3.29-6.73-6.29-2.83-6.84-2.83-11.52c0-6.24,1.66-11.03,4.98-14.38,3.32-3.35,8.01-5.03,14.08-5.03,4.75,0,8.48.96,11.2,2.88s4.74,4.87,6.06,8.85l-10.29,2.29c-.36-1.15-.74-1.99-1.13-2.52-.65-.89-1.45-1.58-2.39-2.06-.94-.48-2-.72-3.16-.72-2.64,0-4.67,1.06-6.07,3.19-1.06,1.58-1.59,4.05-1.59,7.43,0,4.18.63,7.04,1.9,8.59s3.05,2.33,5.35,2.33,3.91-.63,5.06-1.88c1.14-1.25,1.97-3.07,2.48-5.45Z"/>
        <path class="cls-2" d="M473.33,20.53h11.65v13.2h12.73v-13.2h11.7v37.71h-11.7v-15.25h-12.73v15.25h-11.65V20.53Z"/>
      </g>
      <rect class="cls-2" x="156.13" y="67.85" width="355.1" height="40.21"/>
      <g>
        <path class="cls-3" d="M297,76.47h4.14l9.88,22.7h-5.64l-1.96-4.81h-8.82l-1.89,4.81h-5.52l9.81-22.7ZM298.92,83.07l-2.76,7.05h5.55l-2.79-7.05Z"/>
        <path class="cls-3" d="M313.96,76.47h5v18.08h9.27v4.62h-14.27v-22.7Z"/>
        <path class="cls-3" d="M352.02,97.57c-1.48.77-3.01,1.33-4.62,1.67-1.6.34-3.24.51-4.91.51-1.77,0-3.41-.28-4.91-.83-1.5-.56-2.79-1.35-3.88-2.39-1.09-1.04-1.94-2.29-2.55-3.77-.61-1.48-.91-3.12-.91-4.94s.3-3.46.91-4.94c.61-1.48,1.46-2.73,2.55-3.77,1.09-1.04,2.38-1.83,3.88-2.39,1.5-.56,3.13-.83,4.91-.83s3.49.22,5.02.66c1.53.44,2.87,1.19,4.02,2.26l-3.53,3.85c-.68-.71-1.45-1.24-2.31-1.6-.85-.36-1.92-.55-3.21-.55-1.07,0-2.04.18-2.9.55-.87.36-1.61.87-2.23,1.52-.62.65-1.1,1.43-1.43,2.32-.33.9-.5,1.87-.5,2.92s.17,2.05.5,2.93c.33.89.81,1.66,1.43,2.31.62.65,1.36,1.16,2.23,1.52.87.36,1.83.55,2.9.55s2.03-.12,2.82-.37c.79-.25,1.42-.5,1.89-.75v-3.69h-4.07v-4.62h8.88v11.86Z"/>
        <path class="cls-3" d="M355.68,87.82c0-1.82.3-3.46.91-4.94.61-1.48,1.46-2.73,2.55-3.77,1.09-1.04,2.38-1.83,3.88-2.39,1.5-.56,3.13-.83,4.91-.83s3.41.28,4.91.83c1.5.56,2.79,1.35,3.88,2.39,1.09,1.04,1.94,2.29,2.55,3.77.61,1.48.91,3.12.91,4.94s-.3,3.46-.91,4.94c-.61,1.48-1.46,2.73-2.55,3.77-1.09,1.04-2.38,1.83-3.88,2.39-1.5.56-3.13.83-4.91.83s-3.41-.28-4.91-.83c-1.5-.56-2.79-1.35-3.88-2.39-1.09-1.04-1.94-2.29-2.55-3.77-.61-1.48-.91-3.12-.91-4.94ZM360.87,87.82c0,1.07.17,2.05.5,2.93.33.89.81,1.66,1.43,2.31.62.65,1.36,1.16,2.23,1.52.87.36,1.83.55,2.9.55s2.04-.18,2.9-.55c.87-.36,1.61-.87,2.23-1.52.62-.65,1.1-1.42,1.43-2.31.33-.89.5-1.86.5-2.93s-.17-2.02-.5-2.92c-.33-.9-.81-1.67-1.43-2.32-.62-.65-1.36-1.16-2.23-1.52-.87-.36-1.83-.55-2.9-.55s-2.04.18-2.9.55c-.87.36-1.61.87-2.23,1.52-.62.65-1.1,1.43-1.43,2.32-.33.9-.5,1.87-.5,2.92Z"/>
      </g>
    </g>
  </g>
</svg>