<svg width="19" height="18" viewBox="0 0 19 18" fill="none" xmlns="http://www.w3.org/2000/svg">
<path fill-rule="evenodd" clip-rule="evenodd" d="M0.400146 9C0.400146 5.40486 0.400146 3.60729 1.25684 2.31255C1.63939 1.73439 2.13454 1.23925 2.7127 0.856692C4.00744 0 5.80501 0 9.40015 0C12.9953 0 14.7929 0 16.0876 0.856692C16.6658 1.23925 17.1609 1.73439 17.5435 2.31255C18.4001 3.60729 18.4001 5.40486 18.4001 9C18.4001 12.5951 18.4001 14.3927 17.5435 15.6874C17.1609 16.2656 16.6658 16.7608 16.0876 17.1433C14.7929 18 12.9953 18 9.40015 18C5.80501 18 4.00744 18 2.7127 17.1433C2.13454 16.7608 1.63939 16.2656 1.25684 15.6874C0.400146 14.3927 0.400146 12.5951 0.400146 9ZM14.0594 9.00023C14.0594 11.5735 11.9733 13.6596 9.39999 13.6596C6.82667 13.6596 4.74058 11.5735 4.74058 9.00023C4.74058 6.42691 6.82667 4.34082 9.39999 4.34082C11.9733 4.34082 14.0594 6.42691 14.0594 9.00023ZM9.39999 12.0832C11.1027 12.0832 12.483 10.7029 12.483 9.00023C12.483 7.29753 11.1027 5.91722 9.39999 5.91722C7.69729 5.91722 6.31698 7.29753 6.31698 9.00023C6.31698 10.7029 7.69729 12.0832 9.39999 12.0832ZM14.2434 5.20155C14.8481 5.20155 15.3382 4.71138 15.3382 4.10673C15.3382 3.50207 14.8481 3.0119 14.2434 3.0119C13.6388 3.0119 13.1486 3.50207 13.1486 4.10673C13.1486 4.71138 13.6388 5.20155 14.2434 5.20155Z" fill="#21A5F0"/>
</svg>
