<svg width="19" height="18" viewBox="0 0 19 18" fill="none" xmlns="http://www.w3.org/2000/svg">
<path d="M0.600098 2.42005C0.600098 1.84284 0.802806 1.36665 1.20821 0.991481C1.61361 0.616295 2.14064 0.428711 2.78929 0.428711C3.42636 0.428711 3.94179 0.613403 4.33562 0.982823C4.74102 1.36378 4.94373 1.86016 4.94373 2.472C4.94373 3.02611 4.74682 3.48786 4.35299 3.85728C3.94759 4.23823 3.41477 4.42871 2.75454 4.42871H2.73716C2.10009 4.42871 1.58466 4.23823 1.19083 3.85728C0.797003 3.47633 0.600098 2.99725 0.600098 2.42005ZM0.825966 17.5716V6.00447H4.68311V17.5716H0.825966ZM6.82018 17.5716H10.6773V11.1127C10.6773 10.7086 10.7237 10.3969 10.8163 10.1776C10.9785 9.78512 11.2246 9.45323 11.5547 9.18195C11.8848 8.91066 12.2989 8.77503 12.797 8.77503C14.0943 8.77503 14.743 9.6466 14.743 11.3897V17.5716H18.6001V10.9395C18.6001 9.23101 18.1947 7.9352 17.3839 7.05208C16.5731 6.16897 15.5016 5.72741 14.1696 5.72741C12.6754 5.72741 11.5113 6.3681 10.6773 7.64949V7.68412H10.6599L10.6773 7.64949V6.00447H6.82018C6.84334 6.37387 6.85492 7.52249 6.85492 9.45035C6.85492 11.3782 6.84334 14.0853 6.82018 17.5716Z" fill="#21A5F0"/>
</svg>
