<svg width="161" height="57" viewBox="0 0 161 57" fill="none" xmlns="http://www.w3.org/2000/svg">
<g clip-path="url(#clip0_260_2738)">
<path d="M76.8702 31.8788C76.1242 31.8788 75.4321 31.7575 74.7939 31.5148C74.1648 31.2721 73.6165 30.9306 73.1491 30.4901C72.6907 30.0497 72.3312 29.5329 72.0705 28.9397C71.8189 28.3465 71.693 27.6993 71.693 26.9983C71.693 26.2972 71.8189 25.65 72.0705 25.0568C72.3312 24.4636 72.6952 23.9468 73.1626 23.5064C73.63 23.066 74.1783 22.7244 74.8074 22.4817C75.4366 22.239 76.1197 22.1177 76.8567 22.1177C77.6027 22.1177 78.2858 22.239 78.906 22.4817C79.5352 22.7244 80.0789 23.066 80.5373 23.5064C81.0047 23.9468 81.3687 24.4636 81.6294 25.0568C81.8901 25.641 82.0204 26.2882 82.0204 26.9983C82.0204 27.6993 81.8901 28.351 81.6294 28.9532C81.3687 29.5464 81.0047 30.0632 80.5373 30.5036C80.0789 30.935 79.5352 31.2721 78.906 31.5148C78.2858 31.7575 77.6072 31.8788 76.8702 31.8788ZM76.8567 30.0183C77.2792 30.0183 77.6656 29.9464 78.0162 29.8025C78.3757 29.6587 78.6903 29.452 78.9599 29.1824C79.2296 28.9127 79.4363 28.5936 79.5801 28.2251C79.7329 27.8566 79.8093 27.4477 79.8093 26.9983C79.8093 26.5488 79.7329 26.1399 79.5801 25.7714C79.4363 25.4029 79.2296 25.0838 78.9599 24.8141C78.6993 24.5445 78.3892 24.3378 78.0297 24.194C77.6701 24.0502 77.2792 23.9782 76.8567 23.9782C76.4343 23.9782 76.0433 24.0502 75.6838 24.194C75.3332 24.3378 75.0231 24.5445 74.7535 24.8141C74.4838 25.0838 74.2726 25.4029 74.1198 25.7714C73.976 26.1399 73.9041 26.5488 73.9041 26.9983C73.9041 27.4387 73.976 27.8476 74.1198 28.2251C74.2726 28.5936 74.4794 28.9127 74.74 29.1824C75.0097 29.452 75.3242 29.6587 75.6838 29.8025C76.0433 29.9464 76.4343 30.0183 76.8567 30.0183ZM83.6618 31.717V22.2795H85.4684L89.4861 28.9397H88.5289L92.4792 22.2795H94.2723L94.2993 31.717H92.25L92.2365 25.4208H92.614L89.4592 30.7193H88.475L85.2527 25.4208H85.7111V31.717H83.6618ZM96.5384 31.717V22.2795H98.345L103.913 29.0745H103.037V22.2795H105.194V31.717H103.401L97.8192 24.922H98.6955V31.717H96.5384ZM107.427 31.717V22.2795H109.611V31.717H107.427ZM113.806 31.717V24.0591H110.786V22.2795H119.01V24.0591H115.99V31.717H113.806ZM122.194 26.0815H126.737V27.7802H122.194V26.0815ZM122.355 29.9643H127.492V31.717H120.185V22.2795H127.317V24.0322H122.355V29.9643ZM133.746 31.8788C133.018 31.8788 132.34 31.762 131.711 31.5283C131.091 31.2856 130.551 30.944 130.093 30.5036C129.634 30.0632 129.275 29.5464 129.014 28.9532C128.763 28.36 128.637 27.7083 128.637 26.9983C128.637 26.2882 128.763 25.6366 129.014 25.0433C129.275 24.4501 129.634 23.9333 130.093 23.4929C130.56 23.0525 131.104 22.7154 131.724 22.4817C132.344 22.239 133.023 22.1177 133.76 22.1177C134.578 22.1177 135.315 22.2615 135.971 22.5491C136.636 22.8278 137.193 23.2412 137.643 23.7895L136.241 25.0838C135.917 24.7153 135.558 24.4411 135.162 24.2614C134.767 24.0726 134.335 23.9782 133.868 23.9782C133.427 23.9782 133.023 24.0502 132.654 24.194C132.286 24.3378 131.967 24.5445 131.697 24.8141C131.428 25.0838 131.216 25.4029 131.064 25.7714C130.92 26.1399 130.848 26.5488 130.848 26.9983C130.848 27.4477 130.92 27.8566 131.064 28.2251C131.216 28.5936 131.428 28.9127 131.697 29.1824C131.967 29.452 132.286 29.6587 132.654 29.8025C133.023 29.9464 133.427 30.0183 133.868 30.0183C134.335 30.0183 134.767 29.9284 135.162 29.7486C135.558 29.5599 135.917 29.2767 136.241 28.8992L137.643 30.1935C137.193 30.7418 136.636 31.1597 135.971 31.4474C135.315 31.735 134.573 31.8788 133.746 31.8788ZM145.589 22.2795H147.773V31.717H145.589V22.2795ZM141.302 31.717H139.118V22.2795H141.302V31.717ZM145.751 27.8476H141.14V26.0006H145.751V27.8476Z" fill="#304B82"/>
<path d="M104.38 40.7688L105.408 38.5195H105.643L106.671 40.7688H106.421L105.476 38.6577H105.572L104.628 40.7688H104.38ZM104.785 40.1679L104.856 39.9751H106.164L106.234 40.1679H104.785ZM107.043 40.7688V38.5195H107.281V40.5632H108.541V40.7688H107.043ZM109.878 40.7881C109.707 40.7881 109.548 40.7602 109.402 40.7045C109.259 40.6467 109.134 40.5664 109.027 40.4635C108.922 40.3607 108.839 40.2397 108.779 40.1004C108.721 39.9612 108.692 39.8091 108.692 39.6442C108.692 39.4792 108.721 39.3271 108.779 39.1879C108.839 39.0487 108.923 38.9276 109.03 38.8248C109.137 38.722 109.262 38.6427 109.406 38.587C109.551 38.5292 109.71 38.5003 109.881 38.5003C110.053 38.5003 110.209 38.527 110.35 38.5806C110.494 38.6341 110.616 38.7155 110.717 38.8248L110.569 38.9758C110.475 38.8816 110.371 38.8141 110.257 38.7734C110.144 38.7327 110.022 38.7123 109.891 38.7123C109.752 38.7123 109.623 38.7359 109.505 38.783C109.39 38.828 109.288 38.8933 109.2 38.979C109.114 39.0626 109.047 39.1611 108.998 39.2746C108.95 39.386 108.927 39.5092 108.927 39.6442C108.927 39.777 108.95 39.9002 108.998 40.0137C109.047 40.1272 109.114 40.2268 109.2 40.3125C109.288 40.3961 109.39 40.4614 109.505 40.5085C109.623 40.5535 109.751 40.576 109.888 40.576C110.016 40.576 110.137 40.5567 110.251 40.5182C110.366 40.4796 110.472 40.4143 110.569 40.3222L110.704 40.5021C110.597 40.5964 110.471 40.6681 110.328 40.7174C110.184 40.7645 110.034 40.7881 109.878 40.7881ZM110.476 40.4732V39.6442H110.704V40.5021L110.476 40.4732ZM112.36 40.7881C112.191 40.7881 112.033 40.7602 111.888 40.7045C111.744 40.6467 111.619 40.5664 111.512 40.4635C111.407 40.3586 111.324 40.2375 111.264 40.1004C111.206 39.9612 111.178 39.8091 111.178 39.6442C111.178 39.4792 111.206 39.3282 111.264 39.1911C111.324 39.0519 111.407 38.9308 111.512 38.828C111.619 38.723 111.744 38.6427 111.888 38.587C112.031 38.5292 112.189 38.5003 112.36 38.5003C112.529 38.5003 112.686 38.5292 112.829 38.587C112.973 38.6427 113.097 38.722 113.202 38.8248C113.309 38.9276 113.391 39.0487 113.449 39.1879C113.509 39.3271 113.539 39.4792 113.539 39.6442C113.539 39.8091 113.509 39.9612 113.449 40.1004C113.391 40.2397 113.309 40.3607 113.202 40.4635C113.097 40.5664 112.973 40.6467 112.829 40.7045C112.686 40.7602 112.529 40.7881 112.36 40.7881ZM112.36 40.576C112.495 40.576 112.619 40.5535 112.733 40.5085C112.848 40.4614 112.948 40.3961 113.032 40.3125C113.117 40.2268 113.184 40.1283 113.231 40.0169C113.278 39.9034 113.302 39.7791 113.302 39.6442C113.302 39.5092 113.278 39.386 113.231 39.2746C113.184 39.1611 113.117 39.0626 113.032 38.979C112.948 38.8933 112.848 38.828 112.733 38.783C112.619 38.7359 112.495 38.7123 112.36 38.7123C112.225 38.7123 112.1 38.7359 111.984 38.783C111.868 38.828 111.768 38.8933 111.682 38.979C111.598 39.0626 111.532 39.1611 111.483 39.2746C111.436 39.386 111.412 39.5092 111.412 39.6442C111.412 39.777 111.436 39.9002 111.483 40.0137C111.532 40.1272 111.598 40.2268 111.682 40.3125C111.768 40.3961 111.868 40.4614 111.984 40.5085C112.1 40.5535 112.225 40.576 112.36 40.576Z" fill="#304B82"/>
<path d="M36.1247 39.8627L42.4467 53.4226C41.8791 53.7359 41.298 54.0331 40.7009 54.3116C40.1038 54.5927 39.4986 54.8471 38.8961 55.0827L32.5821 41.5443L23.5851 22.2462L0.377554 33.0694C0.149951 31.6878 0.0214215 30.3061 0 28.9217L47.4138 6.8147C48.4555 7.71976 49.4382 8.70782 50.3432 9.77087L27.1357 20.5941L36.1247 39.8654V39.8627Z" fill="url(#paint0_linear_260_2738)"/>
<path d="M28.8306 42.76L21.6945 27.4543L4.93218 35.2678C4.35112 34.5502 3.33896 34.2825 2.46335 34.6921C1.91443 34.9465 1.53152 35.4124 1.36818 35.956C1.22358 36.4273 1.245 36.9468 1.46993 37.4261C1.94924 38.4543 3.17294 38.9041 4.20117 38.4248C4.26276 38.3981 4.31899 38.3633 4.3779 38.3311C5.13836 37.8813 5.51324 37.003 5.34455 36.1568L21.2179 28.7557L27.8532 42.9876L34.1351 56.4591C34.4617 56.3975 34.7911 56.3279 35.1205 56.2475L28.8279 42.7573L28.8306 42.76ZM3.78881 37.5332C3.66563 37.5894 3.53711 37.6215 3.41125 37.6296C2.98015 37.659 2.55439 37.4261 2.35624 37.0083C2.3134 36.9173 2.28662 36.8236 2.27324 36.7272C2.19291 36.2639 2.43122 35.7846 2.88107 35.5785C3.41661 35.3268 4.05926 35.5597 4.31096 36.0979C4.56534 36.6388 4.3297 37.2815 3.79149 37.5332H3.78881Z" fill="url(#paint1_linear_260_2738)"/>
<path d="M42.9152 4.05133C42.4359 3.0231 41.2068 2.5786 40.1786 3.05791C39.3083 3.4676 38.8585 4.41282 39.0379 5.32056L4.2413 21.5447C3.66024 20.8244 2.64808 20.5593 1.77247 20.9636C0.741563 21.4429 0.299744 22.672 0.779051 23.7002C1.25836 24.7285 2.48742 25.1729 3.51029 24.6936C4.3859 24.2893 4.83575 23.3387 4.65367 22.431L39.4502 6.20687C40.0313 6.92717 41.0435 7.19226 41.9191 6.78793C42.9446 6.30863 43.3918 5.07957 42.9125 4.05133H42.9152ZM3.09793 23.8046C2.56239 24.0564 1.91975 23.8234 1.66804 23.2852C1.41366 22.7443 1.6493 22.1016 2.18752 21.8499C2.72305 21.5982 3.3657 21.8312 3.62276 22.3748C3.87446 22.9103 3.6415 23.5529 3.09793 23.8046ZM41.5067 5.89894C40.9658 6.15064 40.3232 5.91768 40.0715 5.37411C39.8198 4.83857 40.0527 4.19593 40.5909 3.94423C41.1318 3.69252 41.7745 3.92548 42.0262 4.4637C42.2779 5.00459 42.0449 5.64724 41.5067 5.89894Z" fill="url(#paint2_linear_260_2738)"/>
<path d="M33.988 1.19155C33.5086 0.163314 32.2849 -0.286538 31.2567 0.192768C30.3811 0.602455 29.9313 1.55303 30.1133 2.45809L7.78408 12.869C7.20302 12.1513 6.19085 11.8836 5.31525 12.2932C4.28702 12.7726 3.84252 14.0016 4.32183 15.0245C4.80113 16.0527 6.03019 16.4972 7.05307 16.0179C7.92868 15.6136 8.37853 14.663 8.19644 13.7553L30.5257 3.34709C31.1068 4.06471 32.1189 4.33248 32.9945 3.92279C34.0228 3.44348 34.4673 2.21442 33.988 1.19155ZM6.63803 15.1343C6.10249 15.386 5.45985 15.153 5.20814 14.6094C4.95644 14.0739 5.1894 13.4313 5.72761 13.1796C6.26851 12.9252 6.91115 13.1608 7.16286 13.699C7.41456 14.2399 7.1816 14.8826 6.63803 15.1343ZM32.5795 3.0338C32.0439 3.2855 31.4013 3.05254 31.1442 2.51433C30.8925 1.97343 31.1255 1.33079 31.6691 1.07908C32.2046 0.827381 32.8473 1.06034 33.1043 1.60391C33.356 2.13945 33.1177 2.78209 32.5795 3.0338Z" fill="url(#paint3_linear_260_2738)"/>
<path d="M22.2273 43.6571L18.6151 35.9132L8.41309 40.6688L7.59907 41.0463C7.01802 40.326 6.00585 40.0609 5.13024 40.4652C4.10469 40.9446 3.65752 42.1736 4.13682 43.2018C4.61613 44.2301 5.84519 44.6746 6.87342 44.1953C7.74367 43.7856 8.19352 42.8404 8.01412 41.9326L9.5886 41.1989L18.1411 37.2119L21.1455 43.6571L27.3524 56.9652C27.7166 56.9866 28.078 56.9973 28.4476 56.9973L22.2273 43.6544V43.6571ZM6.4557 43.309C5.92016 43.5607 5.27752 43.3277 5.02581 42.7895C4.77411 42.2486 5.00707 41.6059 5.54529 41.3542C6.08618 41.1025 6.72883 41.3355 6.98053 41.8791C7.23223 42.4146 6.99927 43.0573 6.4557 43.309Z" fill="url(#paint4_linear_260_2738)"/>
<path d="M52.9727 13.4098C52.6995 12.8207 52.1774 12.4191 51.591 12.2745C51.1518 12.1701 50.6806 12.2049 50.2414 12.4111C49.3658 12.8207 48.916 13.766 49.0981 14.6764L32.3438 22.4845L39.4503 37.7259L45.7724 51.2858C46.0401 51.0822 46.3079 50.8761 46.565 50.6645L40.2483 37.1127L33.6478 22.9585L49.5131 15.5573C49.987 16.1464 50.7502 16.4329 51.4919 16.291C51.6579 16.2643 51.8213 16.2107 51.9792 16.1384C53.0075 15.6591 53.452 14.43 52.9727 13.4072V13.4098ZM51.5696 15.2494L51.5642 15.2548C51.0233 15.5065 50.3807 15.2735 50.129 14.7353C49.8773 14.1944 50.1102 13.5518 50.6538 13.3C50.9698 13.1501 51.3259 13.1715 51.6178 13.3322C51.8159 13.4366 51.9819 13.6053 52.0837 13.8249C52.3354 14.3604 52.1024 15.0004 51.5696 15.2494Z" fill="url(#paint5_linear_260_2738)"/>
<path d="M55.6827 19.1669C55.2034 18.1386 53.9743 17.6941 52.9461 18.1735C52.0705 18.5778 51.626 19.5284 51.8027 20.4361L50.6861 20.9556L40.8054 25.5666L44.3507 33.1685L50.6379 46.6534C50.8709 46.3722 51.1011 46.091 51.3207 45.7965L45.0415 32.3384L42.1068 26.0432L50.3433 22.2034L52.2177 21.3278C52.7988 22.0454 53.8136 22.3132 54.6866 21.9035C55.7148 21.4242 56.1647 20.2005 55.6853 19.1722L55.6827 19.1669ZM54.2715 21.0145C53.736 21.2662 53.0933 21.0279 52.8416 20.4897C52.5899 19.9541 52.8229 19.3115 53.3611 19.0544C53.902 18.8027 54.5446 19.041 54.7963 19.5792C55.0481 20.1148 54.8151 20.7574 54.2715 21.0145Z" fill="url(#paint6_linear_260_2738)"/>
<path d="M56.9705 25.5907C56.4912 24.5625 55.2622 24.1126 54.2339 24.5919C53.3583 25.0016 52.9138 25.9522 53.0906 26.8572L49.2588 28.6433L54.657 40.2135C54.8364 39.8172 55.0131 39.4129 55.1711 39.0032L50.5601 29.1172L53.5029 27.7435C54.084 28.4612 55.0988 28.7289 55.9718 28.3193C57 27.8399 57.4445 26.6109 56.9705 25.588V25.5907ZM55.5594 27.4329C55.0239 27.6846 54.3812 27.4517 54.1295 26.9135C53.8778 26.3726 54.1108 25.7299 54.649 25.4782C55.1899 25.2265 55.8325 25.4595 56.0842 26.0031C56.3359 26.5386 56.103 27.1812 55.5594 27.4329Z" fill="url(#paint7_linear_260_2738)"/>
<path d="M15.5358 44.3693L11.704 46.1553C11.1229 45.4377 10.1108 45.1699 9.23517 45.5796C8.20694 46.0589 7.76244 47.288 8.24175 48.3108C8.72106 49.3391 9.95011 49.7836 10.973 49.3043C11.8486 48.8999 12.2984 47.9494 12.1164 47.0416L15.0591 45.668L19.6701 55.5594C20.0878 55.7013 20.5109 55.8244 20.934 55.9423L15.5358 44.3666V44.3693ZM10.5606 48.4206C10.0251 48.6723 9.38244 48.4394 9.13074 47.8958C8.87904 47.3603 9.112 46.7176 9.65021 46.4659C10.1911 46.2115 10.8338 46.4472 11.0855 46.9854C11.3372 47.5209 11.1042 48.1689 10.5606 48.4206Z" fill="url(#paint8_linear_260_2738)"/>
</g>
<defs>
<linearGradient id="paint0_linear_260_2738" x1="34.1593" y1="49.6149" x2="23.968" y2="16.9551" gradientUnits="userSpaceOnUse">
<stop stop-color="#8AFCFF"/>
<stop offset="1" stop-color="#6EB7E5"/>
</linearGradient>
<linearGradient id="paint1_linear_260_2738" x1="23.51" y1="24.7981" x2="17.761" y2="48.0538" gradientUnits="userSpaceOnUse">
<stop stop-color="#17266B"/>
<stop offset="1" stop-color="#4984C4"/>
</linearGradient>
<linearGradient id="paint2_linear_260_2738" x1="11.8111" y1="-3.38193" x2="34.6866" y2="35.9587" gradientUnits="userSpaceOnUse">
<stop stop-color="#17266B"/>
<stop offset="1" stop-color="#4984C4"/>
</linearGradient>
<linearGradient id="paint3_linear_260_2738" x1="12.3121" y1="-3.66043" x2="35.1688" y2="35.6534" gradientUnits="userSpaceOnUse">
<stop stop-color="#17266B"/>
<stop offset="1" stop-color="#4984C4"/>
</linearGradient>
<linearGradient id="paint4_linear_260_2738" x1="22.3799" y1="24.5223" x2="16.6336" y2="47.7753" gradientUnits="userSpaceOnUse">
<stop stop-color="#17266B"/>
<stop offset="1" stop-color="#4984C4"/>
</linearGradient>
<linearGradient id="paint5_linear_260_2738" x1="30.938" y1="25.1461" x2="51.5803" y2="32.8552" gradientUnits="userSpaceOnUse">
<stop stop-color="#17266B"/>
<stop offset="1" stop-color="#4984C4"/>
</linearGradient>
<linearGradient id="paint6_linear_260_2738" x1="31.2193" y1="24.4018" x2="51.8589" y2="32.1108" gradientUnits="userSpaceOnUse">
<stop stop-color="#17266B"/>
<stop offset="1" stop-color="#4984C4"/>
</linearGradient>
<linearGradient id="paint7_linear_260_2738" x1="31.5459" y1="23.5262" x2="52.1855" y2="31.2326" gradientUnits="userSpaceOnUse">
<stop stop-color="#17266B"/>
<stop offset="1" stop-color="#4984C4"/>
</linearGradient>
<linearGradient id="paint8_linear_260_2738" x1="21.2473" y1="24.2331" x2="15.4983" y2="47.4941" gradientUnits="userSpaceOnUse">
<stop stop-color="#17266B"/>
<stop offset="1" stop-color="#4984C4"/>
</linearGradient>
<clipPath id="clip0_260_2738">
<rect width="160.327" height="57" fill="white"/>
</clipPath>
</defs>
</svg>
