<svg width="14" height="14" viewBox="0 0 14 14" fill="none" xmlns="http://www.w3.org/2000/svg">
<path d="M11.0846 2.3335H2.91797C2.45384 2.3335 2.00872 2.51787 1.68053 2.84606C1.35234 3.17425 1.16797 3.61937 1.16797 4.0835V9.91683C1.16797 10.381 1.35234 10.8261 1.68053 11.1543C2.00872 11.4825 2.45384 11.6668 2.91797 11.6668H11.0846C11.5488 11.6668 11.9939 11.4825 12.3221 11.1543C12.6503 10.8261 12.8346 10.381 12.8346 9.91683V4.0835C12.8346 3.61937 12.6503 3.17425 12.3221 2.84606C11.9939 2.51787 11.5488 2.3335 11.0846 2.3335ZM10.8455 3.50016L7.41547 6.93016C7.36124 6.98484 7.29672 7.02823 7.22564 7.05785C7.15455 7.08746 7.07831 7.10271 7.0013 7.10271C6.9243 7.10271 6.84805 7.08746 6.77697 7.05785C6.70588 7.02823 6.64136 6.98484 6.58714 6.93016L3.15714 3.50016H10.8455ZM11.668 9.91683C11.668 10.0715 11.6065 10.2199 11.4971 10.3293C11.3877 10.4387 11.2393 10.5002 11.0846 10.5002H2.91797C2.76326 10.5002 2.61489 10.4387 2.50549 10.3293C2.39609 10.2199 2.33464 10.0715 2.33464 9.91683V4.32266L5.76464 7.75266C6.09276 8.08038 6.53755 8.26446 7.0013 8.26446C7.46505 8.26446 7.90984 8.08038 8.23797 7.75266L11.668 4.32266V9.91683Z" fill="white"/>
</svg>
