<svg xmlns="http://www.w3.org/2000/svg" enable-background="new 0 0 500 500" viewBox="0 0 500 500" id="searchengineoptimization">
  <g id="obj" fill="#000000" class="color000000 svgShape">
    <rect width="206.07" height="206.07" x="91.7" y="69.57" fill="#e3f5ff" class="colore4e3ff svgShape"></rect>
    <rect width="113.83" height="113.83" x="309.5" y="292.44" fill="#e3f5ff" class="colore4e3ff svgShape"></rect>
    <path fill="#21a5f0" d="M382.03,113.08v259.38c0,3.32-2.69,6.01-6.01,6.01H140.28c-3.32,0-6.01-2.69-6.01-6.01V113.08
						c0-3.32,2.69-6.01,6.01-6.01h235.74C379.34,107.06,382.03,109.76,382.03,113.08z" class="color7563fb svgShape"></path>
    <path fill="#1d6893" d="M134.52,130.89H382.3v-18.6c0-3.32-2.69-6.02-6.02-6.02H140.54c-3.32,0-6.02,2.69-6.02,6.02V130.89z" class="color461d93 svgShape"></path>
    <circle cx="187.38" cy="118.58" r="3.56" fill="#ffffff" class="colorffffff svgShape"></circle>
    <circle cx="170.36" cy="118.58" r="3.56" fill="#ffffff" class="colorffffff svgShape"></circle>
    <circle cx="153.33" cy="118.58" r="3.56" fill="#ffffff" class="colorffffff svgShape"></circle>
    <g fill="#000000" class="color000000 svgShape">
      <rect width="72.6" height="72.6" x="151.7" y="142.88" fill="#21a5f0" opacity=".5" class="color7563fb svgShape"></rect>
      <rect width="131.23" height="5.11" x="233.64" y="148.1" fill="#21a5f0" opacity=".5" class="color7563fb svgShape"></rect>
      <rect width="131.23" height="5.11" x="233.64" y="166.72" fill="#21a5f0" opacity=".5" class="color7563fb svgShape"></rect>
      <rect width="131.23" height="5.11" x="233.64" y="185.34" fill="#21a5f0" opacity=".5" class="color7563fb svgShape"></rect>
      <rect width="131.23" height="5.11" x="233.64" y="203.96" fill="#21a5f0" opacity=".5" class="color7563fb svgShape"></rect>
    </g>
    <rect width="210.77" height="5.11" x="152.9" y="344.64" fill="#21a5f0" opacity=".5" class="color7563fb svgShape"></rect>
    <g fill="#000000" class="color000000 svgShape">
      <path fill="#21a5f0" d="M362.46,322.76h-204.4c-1.53,0-2.77-1.24-2.77-2.77v-84.32c0-1.53,1.24-2.77,2.77-2.77h204.4
						c1.53,0,2.77,1.24,2.77,2.77v84.32C365.23,321.52,363.99,322.76,362.46,322.76z" opacity=".5" class="color7563fb svgShape"></path>
      <path fill="#21a5f0" d="M360.48,320.78h-204.4c-1.53,0-2.77-1.24-2.77-2.77V233.7c0-1.53,1.24-2.77,2.77-2.77h204.4
						c1.53,0,2.77,1.24,2.77,2.77v84.32C363.25,319.55,362.01,320.78,360.48,320.78z" class="color7563fb svgShape"></path>
      <path fill="#1d6893" d="M339.33,256.23h-136.4c-2.61,0-4.73-2.12-4.73-4.73v-0.14c0-2.61,2.12-4.73,4.73-4.73h136.4
								c2.61,0,4.73,2.12,4.73,4.73v0.14C344.06,254.11,341.94,256.23,339.33,256.23z" class="color461d93 svgShape"></path>
      <path fill="#21a5f0" d="M336.91,253.19H205.35c-0.96,0-1.74-0.78-1.74-1.74v-0.05c0-0.96,0.78-1.74,1.74-1.74h131.56
								c0.96,0,1.74,0.78,1.74,1.74v0.05C338.65,252.41,337.87,253.19,336.91,253.19z" class="color7563fb svgShape"></path>
      <path fill="#1d6893" d="M339.33,280.66h-136.4c-2.61,0-4.73-2.12-4.73-4.73v-0.14c0-2.61,2.12-4.73,4.73-4.73h136.4
								c2.61,0,4.73,2.12,4.73,4.73v0.14C344.06,278.54,341.94,280.66,339.33,280.66z" class="color461d93 svgShape"></path>
      <path fill="#21a5f0" d="M336.91,277.63H205.35c-0.96,0-1.74-0.78-1.74-1.74v-0.05c0-0.96,0.78-1.74,1.74-1.74h131.56
								c0.96,0,1.74,0.78,1.74,1.74v0.05C338.65,276.85,337.87,277.63,336.91,277.63z" class="color7563fb svgShape"></path>
      <g fill="#000000" class="color000000 svgShape">
        <path fill="#1d6893" d="M339.33,305.09h-136.4c-2.61,0-4.73-2.12-4.73-4.73v-0.14c0-2.61,2.12-4.73,4.73-4.73h136.4
								c2.61,0,4.73,2.12,4.73,4.73v0.14C344.06,302.98,341.94,305.09,339.33,305.09z" class="color461d93 svgShape"></path>
        <path fill="#21a5f0" d="M336.91,302.06H205.35c-0.96,0-1.74-0.78-1.74-1.74v-0.05c0-0.96,0.78-1.74,1.74-1.74h131.56
								c0.96,0,1.74,0.78,1.74,1.74v0.05C338.65,301.28,337.87,302.06,336.91,302.06z" class="color7563fb svgShape"></path>
      </g>
      <g fill="#000000" class="color000000 svgShape">
        <path fill="#1d6893" d="M184.12,256.23h-9.43c-2.65,0-4.8-2.15-4.8-4.8v0c0-2.65,2.15-4.8,4.8-4.8h9.43
								c2.65,0,4.8,2.15,4.8,4.8v0C188.92,254.08,186.77,256.23,184.12,256.23z" class="color461d93 svgShape"></path>
        <path fill="#21a5f0" d="M183.42,253.19h-8.03c-0.98,0-1.77-0.79-1.77-1.77l0,0c0-0.98,0.79-1.77,1.77-1.77h8.03
								c0.98,0,1.77,0.79,1.77,1.77l0,0C185.19,252.4,184.4,253.19,183.42,253.19z" class="color7563fb svgShape"></path>
        <path fill="#1d6893" d="M184.12,280.66h-9.43c-2.65,0-4.8-2.15-4.8-4.8l0,0c0-2.65,2.15-4.8,4.8-4.8h9.43
								c2.65,0,4.8,2.15,4.8,4.8l0,0C188.92,278.51,186.77,280.66,184.12,280.66z" class="color461d93 svgShape"></path>
        <path fill="#21a5f0" d="M183.42,277.63h-8.03c-0.98,0-1.77-0.79-1.77-1.77l0,0c0-0.98,0.79-1.77,1.77-1.77h8.03
								c0.98,0,1.77,0.79,1.77,1.77l0,0C185.19,276.84,184.4,277.63,183.42,277.63z" class="color7563fb svgShape"></path>
        <g fill="#000000" class="color000000 svgShape">
          <path fill="#1d6893" d="M184.12,305.09h-9.43c-2.65,0-4.8-2.15-4.8-4.8l0,0c0-2.65,2.15-4.8,4.8-4.8h9.43
								c2.65,0,4.8,2.15,4.8,4.8l0,0C188.92,302.95,186.77,305.09,184.12,305.09z" class="color461d93 svgShape"></path>
          <path fill="#21a5f0" d="M183.42,302.06h-8.03c-0.98,0-1.77-0.79-1.77-1.77l0,0c0-0.98,0.79-1.77,1.77-1.77h8.03
								c0.98,0,1.77,0.79,1.77,1.77l0,0C185.19,301.27,184.4,302.06,183.42,302.06z" class="color7563fb svgShape"></path>
        </g>
      </g>
    </g>
    <g fill="#000000" class="color000000 svgShape">
      <path fill="#ffffff" d="M329.28,256.43c-11.25,19.85-34.34,28.78-55.37,22.93c-3-0.82-5.96-1.96-8.82-3.41
						c-0.73-0.36-1.44-0.75-2.16-1.15c-1.37-0.78-2.67-1.6-3.94-2.49c-6.1-4.25-10.96-9.72-14.43-15.88
						c-8.14-14.39-8.74-32.57,0-47.99c8.84-15.62,25.02-24.48,41.76-24.68c7.07-0.11,14.24,1.33,21,4.46
						c1.21,0.56,2.42,1.19,3.61,1.85c0.89,0.5,1.77,1.03,2.61,1.59c2.69,1.74,5.15,3.73,7.37,5.89
						C336.38,212.61,340.42,236.74,329.28,256.43z" opacity=".15" class="colorffffff svgShape"></path>
      <rect width="12.37" height="79.11" x="366.12" y="241.24" fill="#1d6893" transform="rotate(-60.474 372.313 280.806)" class="color461d93 svgShape"></rect>
      <path fill="#ffffff" d="M316.36,180.44c-28.71-16.26-65.17-6.16-81.44,22.55c-16.27,28.72-6.17,65.18,22.55,81.45
						c26.75,15.15,60.22,7.43,77.81-16.89c1.29-1.79,2.51-3.68,3.62-5.65c1.12-1.97,2.11-3.98,2.98-6.03
						C353.7,228.25,343.1,195.58,316.36,180.44z M261.25,277.73c-25.02-14.17-33.81-45.93-19.64-70.95
						c14.18-25.02,45.95-33.81,70.96-19.64c25.02,14.17,33.81,45.93,19.64,70.95C318.05,283.1,286.28,291.89,261.25,277.73z" class="colorffffff svgShape"></path>
      <path fill="#4cabe1" d="M440.35,311.99l-6.3,11.12c-0.72,1.27-2.33,1.72-3.6,1l-63.56-36c-1.27-0.72-1.72-2.33-1-3.6l6.3-11.12
						c0.72-1.27,2.33-1.72,3.6-1l63.56,36C440.62,309.11,441.07,310.72,440.35,311.99z" class="colore14c72 svgShape"></path>
    </g>
    <g fill="#000000" class="color000000 svgShape">
      <path fill="#1d6893" d="M190.42,417.28h-84.95c-1.75,0-3.18-1.42-3.18-3.18V311.38c0-1.75,1.42-3.18,3.18-3.18h84.95
					c1.75,0,3.18,1.42,3.18,3.18v102.73C193.6,415.86,192.18,417.28,190.42,417.28z" class="color461d93 svgShape"></path>
      <g id="XMLID_9_" fill="#000000" class="color000000 svgShape">
        <path fill="#ffffff" d="M147.68,323.79c3.32-0.05,6.71,0.64,9.92,2.14c1.82,0.85,3.48,1.9,4.95,3.13
										c2.13,1.76,3.88,3.86,5.22,6.19l-19.81,11.41L147.68,323.79z" class="colorffffff svgShape"></path>
        <path fill="#21a5f0" d="M147.95,346.66l19.81-11.41c3.58,6.23,4.17,14.05,0.91,21.06c-1.49,3.19-3.62,5.88-6.17,7.98
										c-2.02,1.67-4.3,2.96-6.73,3.85L147.95,346.66z" class="color7563fb svgShape"></path>
        <path fill="#4cabe1" d="M127.22,337.01c-5.33,11.45-0.37,25.05,11.08,30.38c5.72,2.66,11.99,2.76,17.48,0.75l-7.83-21.48
										l-0.28-22.86C139.17,323.9,131.05,328.78,127.22,337.01z" class="colore14c72 svgShape"></path>
      </g>
      <rect width="57.66" height="2.64" x="119.12" y="381.72" fill="#ffffff" class="colorffffff svgShape"></rect>
      <rect width="57.66" height="2.64" x="119.12" y="393.26" fill="#ffffff" class="colorffffff svgShape"></rect>
    </g>
    <g fill="#000000" class="color000000 svgShape">
      <path fill="#4cabe1" d="M412.6,154.63H256.38c-1.41,0-2.55-1.14-2.55-2.55v-72.3c0-1.41,1.14-2.55,2.55-2.55H412.6
				c1.41,0,2.55,1.14,2.55,2.55v72.3C415.16,153.49,414.02,154.63,412.6,154.63z" class="colore14c72 svgShape"></path>
      <rect width="136.84" height="2.2" x="266.07" y="142.8" fill="#21a5f0" opacity=".5" class="color7563fb svgShape"></rect>
      <polygon fill="#ffffff" points="271.99 134.86 269.99 132.09 304.2 107.41 323.51 121.35 351.29 101.3 363.92 110.41 388.3 92.82 390.3 95.59 363.92 114.63 351.29 105.52 323.51 125.56 304.2 111.62" class="colorffffff svgShape"></polygon>
      <polygon fill="#ffffff" points="397.1 89.21 385.66 90.36 392.38 99.69" class="colorffffff svgShape"></polygon>
    </g>
  </g>
</svg>
