<svg width="15" height="16" viewBox="0 0 15 16" fill="none" xmlns="http://www.w3.org/2000/svg">
<path d="M0.954833 9.8424C0.660086 10.1171 0.423677 10.4483 0.259709 10.8162C0.0957413 11.1842 0.00757402 11.5815 0.000466885 11.9843C-0.00664025 12.3871 0.0674583 12.7872 0.218342 13.1608C0.369226 13.5343 0.593805 13.8737 0.87868 14.1586C1.16355 14.4434 1.50289 14.668 1.87644 14.8189C2.25 14.9698 2.65011 15.0439 3.05292 15.0368C3.45573 15.0297 3.85299 14.9415 4.22099 14.7775C4.58898 14.6136 4.92019 14.3772 5.19483 14.0824C5.75664 13.5199 6.07219 12.7574 6.07219 11.9624C6.07219 11.1674 5.75664 10.4049 5.19483 9.8424C4.62255 9.29939 3.86373 8.99668 3.07483 8.99668C2.28593 8.99668 1.52711 9.29939 0.954833 9.8424ZM3.78483 12.6724C3.69187 12.7661 3.58127 12.8405 3.45941 12.8913C3.33755 12.9421 3.20685 12.9682 3.07483 12.9682C2.94282 12.9682 2.81212 12.9421 2.69026 12.8913C2.5684 12.8405 2.4578 12.7661 2.36483 12.6724C2.2711 12.5794 2.19671 12.4688 2.14594 12.347C2.09517 12.2251 2.06903 12.0944 2.06903 11.9624C2.06903 11.8304 2.09517 11.6997 2.14594 11.5778C2.19671 11.456 2.2711 11.3454 2.36483 11.2524C2.4578 11.1587 2.5684 11.0843 2.69026 11.0335C2.81212 10.9827 2.94282 10.9566 3.07483 10.9566C3.20685 10.9566 3.33755 10.9827 3.45941 11.0335C3.58127 11.0843 3.69187 11.1587 3.78483 11.2524C3.87856 11.3454 3.95296 11.456 4.00372 11.5778C4.05449 11.6997 4.08063 11.8304 4.08063 11.9624C4.08063 12.0944 4.05449 12.2251 4.00372 12.347C3.95296 12.4688 3.87856 12.5794 3.78483 12.6724ZM3.07483 4.9624C2.80962 4.9624 2.55526 5.06776 2.36773 5.2553C2.18019 5.44283 2.07483 5.69719 2.07483 5.9624C2.07483 6.22762 2.18019 6.48197 2.36773 6.66951C2.55526 6.85705 2.80962 6.9624 3.07483 6.9624C4.40092 6.9624 5.67269 7.48919 6.61037 8.42687C7.54805 9.36455 8.07483 10.6363 8.07483 11.9624C8.07483 12.2276 8.18019 12.482 8.36773 12.6695C8.55526 12.857 8.80962 12.9624 9.07483 12.9624C9.34005 12.9624 9.5944 12.857 9.78194 12.6695C9.96948 12.482 10.0748 12.2276 10.0748 11.9624C10.0748 10.1059 9.33733 8.32541 8.02458 7.01266C6.71183 5.6999 4.93135 4.9624 3.07483 4.9624ZM3.07483 0.962402C2.80962 0.962402 2.55526 1.06776 2.36773 1.2553C2.18019 1.44283 2.07483 1.69719 2.07483 1.9624C2.07483 2.22762 2.18019 2.48197 2.36773 2.66951C2.55526 2.85705 2.80962 2.9624 3.07483 2.9624C5.46178 2.9624 7.75097 3.91061 9.43879 5.59844C11.1266 7.28627 12.0748 9.57545 12.0748 11.9624C12.0748 12.2276 12.1802 12.482 12.3677 12.6695C12.5553 12.857 12.8096 12.9624 13.0748 12.9624C13.34 12.9624 13.5944 12.857 13.7819 12.6695C13.9695 12.482 14.0748 12.2276 14.0748 11.9624C14.0748 9.04502 12.9159 6.24713 10.853 4.18423C8.79011 2.12133 5.99221 0.962402 3.07483 0.962402Z" fill="white"/>
</svg>
