<svg width="18" height="14" viewBox="0 0 18 14" fill="none" xmlns="http://www.w3.org/2000/svg">
<path d="M0.402344 3.3C0.402344 2.42479 0.750021 1.58542 1.36889 0.966548C1.98776 0.347678 2.82713 0 3.70234 0H9.20234C10.0776 0 10.9169 0.347678 11.5358 0.966548C12.1547 1.58542 12.5023 2.42479 12.5023 3.3V9.9C12.5023 10.7752 12.1547 11.6146 11.5358 12.2335C10.9169 12.8523 10.0776 13.2 9.20234 13.2H3.70234C2.82713 13.2 1.98776 12.8523 1.36889 12.2335C0.750021 11.6146 0.402344 10.7752 0.402344 9.9V3.3ZM15.843 11.8536L13.6023 10.3059V2.893L15.843 1.3464C16.0494 1.20402 16.2907 1.12074 16.5409 1.10558C16.7911 1.09042 17.0407 1.14395 17.2627 1.26039C17.4847 1.37682 17.6706 1.55173 17.8004 1.76619C17.9302 1.98066 17.9989 2.22652 17.999 2.4772V10.7217C17.9991 10.9725 17.9305 11.2185 17.8008 11.4331C17.6711 11.6477 17.4852 11.8228 17.2632 11.9394C17.0412 12.0559 16.7915 12.1096 16.5412 12.0944C16.2908 12.0793 16.0494 11.996 15.843 11.8536Z" fill="#4984c4"/>
</svg>
