<svg width="21" height="14" viewBox="0 0 21 14" fill="none" xmlns="http://www.w3.org/2000/svg">
<path d="M10.9388 13.9802L6.87656 13.9043C5.56131 13.8778 4.24279 13.9306 2.95333 13.6565C0.991769 13.247 0.852805 11.2391 0.707394 9.55486C0.507032 7.18702 0.584598 4.77621 0.962707 2.42813C1.17616 1.11061 2.01619 0.324442 3.31527 0.238892C7.70062 -0.0715831 12.1151 -0.0347886 16.4908 0.110059C16.9529 0.123338 17.4182 0.195914 17.8739 0.278524C20.1232 0.681442 20.178 2.95684 20.3238 4.8723C20.4692 6.80752 20.4078 8.75268 20.1299 10.6747C19.9069 12.2661 19.4803 13.6007 17.6799 13.7295C15.4242 13.898 13.2202 14.0336 10.9581 13.9904C10.9582 13.9802 10.9452 13.9802 10.9388 13.9802ZM8.55058 9.95119C10.2505 8.95378 11.9179 7.97299 13.6081 6.98227C11.9051 5.98486 10.2408 5.00407 8.55058 4.01335V9.95119Z" fill="#21A5F0"/>
</svg>
